# xmcd CD database file
#
# Track frame offsets:
#	150
#	11503
#	22966
#	34361
#	44617
#	55687
#	68709
#	79211
#	89913
#	101587
#
# Disc length: 1524 seconds
#
# Revision: 0
# Processed by: cddbd v1.5.2PL0 Copyright (c) Steve Scherf et al.
# Submitted via: CDex 1.51
#
DISCID=8005f20a
DTITLE=Patsy Cline - Golden Legends
DYEAR=2004
DGENRE=Country
TTITLE0=Walkin' After Midnight
TTITLE1=The Heart You Break May Be Your Own
TTITLE2=I've Loved And Lost Again
TTITLE3=Walking Dream
TTITLE4=Just Out Of Reach
TTITLE5=If I Could See The World (Through The Eyes Of A Child)
TTITLE6=Honky Tonk Merry Go Round
TTITLE7=I Cried All The Way To The Altar
TTITLE8=Cry Not For Me
TTITLE9=Yes I Understand
EXTD=YEAR: 2004
EXTT0=
EXTT1=
EXTT2=
EXTT3=
EXTT4=
EXTT5=
EXTT6=
EXTT7=
EXTT8=
EXTT9=
PLAYORDER=
